# xmcd
#
# Track frame offsets:
#	150
#	20319
#	40027
#	68010
#	91989
#	109756
#	130260
#	145251
#	148506
#	157124
#	176001
#	191272
#	206993
#	227002
#	242538
#
# Disc length: 3504 seconds
#
# Revision: 0
# Processed by: cddbd v1.5.2PL0 Copyright (c) Steve Scherf et al.
# Submitted via: EasyCDDAExtractor 11.9.9.666
#
DISCID=cb0dae0f
DTITLE=Various Artist - roostevaba #1
DYEAR=2006
DGENRE=Metal
TTITLE0=THARAPhITA - SORCERESS
TTITLE1=TAAK - Ööliblikas
TTITLE2=SWALLOW THE SUN - DESCENDING WINTERS
TTITLE3=CODEON - FATAL COLLISION 2004
TTITLE4=ECHOSILENCE - INFORMATION INTOXICATION
TTITLE5=MANATARK - SIRENS CALLING
TTITLE6=SCOURGER - THE OATH AND THE LIE
TTITLE7=CAUSE FOR EFFECT - PULSAR AND PLUTO
TTITLE8=CAUSE FOR EFFECT - RYTMIST
TTITLE9=NIHILISTIKRYPT - I HATE EVERYTHING
TTITLE10=MUST MISSA - YOU FILTHY PIG
TTITLE11=LOITS - AEG äRGATA
TTITLE12=NITROUS - DOMINANT FORCE
TTITLE13=NORTHEN DISCIPLINE - THE ONE
TTITLE14=THIRD DESCENT - COMMEMORATE THE 6TH ARMY
EXTD=
EXTT0=
EXTT1=
EXTT2=
EXTT3=
EXTT4=
EXTT5=
EXTT6=
EXTT7=
EXTT8=
EXTT9=
EXTT10=
EXTT11=
EXTT12=
EXTT13=
EXTT14=
PLAYORDER=
